<mxfile host="app.diagrams.net" modified="2022-05-01T14:02:32.114Z" agent="5.0 (Windows NT 10.0; Win64; x64) AppleWebKit/537.36 (KHTML, like Gecko) Chrome/100.0.4896.127 Safari/537.36" etag="qkV4oHpU1YIXkqkaDAMi" version="17.5.0" type="github">
  <diagram id="sfww8BN-WbycEzRLHBNi" name="Page-1">
    <mxGraphModel dx="1422" dy="762" grid="1" gridSize="10" guides="1" tooltips="1" connect="1" arrows="1" fold="1" page="1" pageScale="1" pageWidth="827" pageHeight="1169" math="0" shadow="0">
      <root>
        <mxCell id="0" />
        <mxCell id="1" parent="0" />
        <mxCell id="_v3AB-LmnHe5vRIVTIrv-2" value="run:&amp;nbsp;20560673-ec8b-4dfb-8b5c-6dba4f80eb20" style="shape=umlFrame;whiteSpace=wrap;html=1;width=280;height=30;" vertex="1" parent="1">
          <mxGeometry x="60" y="20" width="710" height="500" as="geometry" />
        </mxCell>
        <mxCell id="_v3AB-LmnHe5vRIVTIrv-1" value="thread: 140236611749760" style="swimlane;" vertex="1" parent="1">
          <mxGeometry x="100" y="140" width="200" height="200" as="geometry" />
        </mxCell>
        <mxCell id="_v3AB-LmnHe5vRIVTIrv-3" value="thread:Â 651911561871321" style="swimlane;" vertex="1" parent="1">
          <mxGeometry x="360" y="140" width="200" height="200" as="geometry" />
        </mxCell>
      </root>
    </mxGraphModel>
  </diagram>
</mxfile>
